# xmcd
#
# Track frame offsets: 
#        182
#        16607
#        37500
#        69977
#        92600
#        114522
#        137860
#        139895
#        154657
#        173035
#        199732
#        219982
#
# Disc length: 3314 seconds
#
# Revision: 3
# Processed by: cddbd v1.4PL0 Copyright (c) Steve Scherf et al.
# Submitted via: ExactAudioCopy v0.90b4
#
DISCID=930cf00c
DTITLE=Mary J. Blige - What's the 411? Remix
DYEAR=1993
DGENRE=R&B
TTITLE0=Leave A Message
TTITLE1=You Don't Have To Worry
TTITLE2=My Love
TTITLE3=Real Love
TTITLE4=What's The 411?
TTITLE5=Reminisce
TTITLE6=Mary and Andre
TTITLE7=Sweet Thing
TTITLE8=Love No Limit
TTITLE9=You Remind Me
TTITLE10=Changes I've Been Going Through
TTITLE11=I Don't Want To Do Anything
EXTD=
EXTT0=
EXTT1=
EXTT2=
EXTT3=
EXTT4=
EXTT5=
EXTT6=
EXTT7=
EXTT8=
EXTT9=
EXTT10=
EXTT11=
PLAYORDER=
